<?xml version="1.0" encoding="iso-8859-1"?>
<!-- Uploaded to: SVG Repo, www.svgrepo.com, Generator: SVG Repo Mixer Tools -->
<!DOCTYPE svg PUBLIC "-//W3C//DTD SVG 1.1//EN" "http://www.w3.org/Graphics/SVG/1.1/DTD/svg11.dtd">
<svg fill="#000000" version="1.1" id="Capa_1" xmlns="http://www.w3.org/2000/svg" xmlns:xlink="http://www.w3.org/1999/xlink" 
	 width="800px" height="800px" viewBox="0 0 180.763 180.763"
	 xml:space="preserve">
<g>
	<g>
		<path d="M30.862,53.125c7.155,0,12.976-8.312,12.976-15.469c0-7.17-5.821-12.982-12.976-12.982
			c-7.173,0-12.982,5.812-12.982,12.982C17.88,44.812,23.689,53.125,30.862,53.125z"/>
		<path d="M56.267,62.167c-0.091-0.375-0.171-0.749-0.347-1.093c-0.134-0.256-0.329-0.454-0.505-0.686
			c-0.231-0.304-0.444-0.605-0.737-0.861c-0.231-0.192-0.505-0.311-0.767-0.466c-0.262-0.149-0.481-0.368-0.78-0.475
			c-0.462-0.167-10.79-3.873-20.289-4.357l-1.303,2.606h-0.031l3.453,26.923l-4.098,7.17l-4.11-7.17l3.453-26.923h-0.037
			l-1.303-2.606c-9.493,0.493-19.814,4.189-20.283,4.357c-0.298,0.107-0.518,0.326-0.785,0.481
			c-0.262,0.149-0.524,0.262-0.755,0.454c-0.305,0.255-0.518,0.569-0.755,0.88c-0.165,0.225-0.347,0.411-0.487,0.66
			c-0.183,0.351-0.262,0.725-0.359,1.111c-0.061,0.237-0.189,0.43-0.219,0.667l-4.11,36.949c-0.311,2.819,1.717,5.358,4.542,5.675
			c0.189,0.019,0.377,0.03,0.572,0.03c2.582,0,4.798-1.942,5.091-4.561l3.745-33.661c0.433-0.131,0.914-0.268,1.425-0.411v35.028
			l-4.08,50.796c-0.274,3.386,2.247,6.356,5.639,6.631c0.17,0.013,0.335,0.013,0.505,0.013c3.172,0,5.87-2.442,6.132-5.664
			l3.69-45.905c0.767,0.335,1.602,0.529,2.49,0.529c0.883,0,1.717-0.194,2.479-0.529l3.69,45.905
			c0.262,3.222,2.959,5.664,6.132,5.664c0.17,0,0.329,0,0.505-0.013c3.392-0.274,5.919-3.245,5.645-6.631l-4.086-50.796V66.861
			c0.512,0.144,0.987,0.28,1.419,0.411l3.745,33.661c0.292,2.618,2.509,4.561,5.09,4.561c0.195,0,0.384-0.012,0.579-0.03
			c2.813-0.311,4.841-2.855,4.53-5.675L56.486,62.84C56.461,62.596,56.333,62.396,56.267,62.167z"/>
		<path d="M116.793,38.885c-0.024-0.255-0.11-0.462-0.171-0.618l-0.109-0.332c-0.085-0.353-0.177-0.721-0.378-1.114
			c-0.128-0.225-0.273-0.42-0.432-0.618l-0.201-0.262c-0.22-0.301-0.451-0.612-0.792-0.904c-0.194-0.167-0.42-0.292-0.651-0.417
			l-0.219-0.125c-0.079-0.046-0.152-0.095-0.22-0.144c-0.177-0.125-0.39-0.283-0.682-0.387c-1.09-0.387-10.613-3.717-19.771-4.335
			c6.363-1.757,10.984-9.277,10.984-15.869C104.151,6.174,97.978,0,90.396,0c-7.587,0-13.762,6.174-13.762,13.761
			c0,6.591,4.622,14.112,10.985,15.869c-9.152,0.624-18.682,3.948-19.766,4.335c-0.292,0.104-0.518,0.268-0.7,0.393
			c-0.073,0.049-0.14,0.107-0.219,0.144l-0.201,0.112c-0.207,0.113-0.438,0.234-0.652,0.411c-0.341,0.286-0.584,0.615-0.883,1.017
			l-0.134,0.167c-0.146,0.186-0.298,0.374-0.408,0.6c-0.201,0.378-0.292,0.752-0.39,1.114l0.712,0.356l-0.816-0.019
			c-0.061,0.155-0.146,0.356-0.17,0.603L59.89,75.815c-0.171,1.571,0.268,3.118,1.26,4.345c0.986,1.236,2.393,2.01,3.964,2.183
			c3.227,0.326,6.168-2,6.527-5.218l3.604-32.498v33.302l-4.08,50.796c-0.152,1.839,0.426,3.642,1.632,5.054
			c1.2,1.413,2.875,2.271,4.731,2.424c3.854,0.268,7.161-2.606,7.465-6.363l3.617-44.901c1.169,0.316,2.405,0.316,3.58,0
			l3.617,44.901c0.286,3.574,3.312,6.388,6.898,6.388c0.189,0,0.372-0.013,0.566-0.024c1.846-0.152,3.526-1.011,4.731-2.424
			c1.2-1.412,1.778-3.203,1.632-5.054l-4.086-50.732V44.621l3.611,32.498c0.354,3.218,3.282,5.55,6.521,5.218
			c3.245-0.362,5.59-3.285,5.225-6.527L116.793,38.885z M78.193,13.773c0-6.729,5.475-12.203,12.203-12.203
			s12.196,5.474,12.196,12.203c0,6.655-5.443,14.69-12.196,14.69C83.637,28.463,78.193,20.429,78.193,13.773z M90.597,32.187h-0.407
			l-1.176-2.35c0.463,0.061,0.914,0.191,1.389,0.191s0.913-0.131,1.376-0.191L90.597,32.187z M93.69,59.722l-3.294,5.766
			l-3.301-5.766l3.301-25.69L93.69,59.722z M115.508,80.815c-2.351,0.286-4.536-1.47-4.805-3.845l-3.738-33.658l-0.061-0.518
			l-2.923-0.843v36.121l4.086,50.792c0.115,1.432-0.342,2.819-1.267,3.916c-0.932,1.096-2.235,1.76-3.66,1.875
			c-2.947,0.207-5.565-2.01-5.803-4.932L93.562,82.73l-1.005,0.441c-1.406,0.618-2.94,0.618-4.348,0l-1.004-0.441l-3.775,46.994
			c-0.225,2.776-2.582,4.956-5.358,4.956c-0.146,0-0.292-0.013-0.432-0.024c-1.438-0.115-2.74-0.779-3.666-1.875
			c-0.932-1.097-1.382-2.484-1.267-3.916l4.086-50.859v-36.06l-2.923,0.843l-3.787,34.176c-0.262,2.368-2.442,4.125-4.811,3.845
			c-1.157-0.131-2.192-0.697-2.917-1.607c-0.73-0.91-1.053-2.046-0.932-3.206l4.104-36.949c0.006-0.04,0.036-0.125,0.067-0.195
			c0.042-0.119,0.097-0.234,0.17-0.536c0.073-0.298,0.134-0.56,0.256-0.779c0.067-0.131,0.158-0.231,0.243-0.344l0.256-0.329
			c0.189-0.25,0.347-0.469,0.554-0.643c0.091-0.082,0.225-0.149,0.384-0.237l0.255-0.137c0.122-0.067,0.226-0.144,0.341-0.226
			c0.122-0.085,0.231-0.161,0.323-0.198c0.426-0.155,10.382-3.706,19.552-4.284l1.004,2l-3.452,26.887l4.914,8.598l4.914-8.58
			l-3.459-26.893l0.999-1.988c9.176,0.578,19.132,4.128,19.552,4.284c0.092,0.031,0.195,0.113,0.323,0.192
			c0.109,0.082,0.225,0.158,0.334,0.225l0.263,0.143c0.14,0.076,0.279,0.144,0.383,0.237c0.201,0.168,0.366,0.387,0.628,0.743
			l0.17,0.21c0.092,0.122,0.189,0.231,0.262,0.356c0.11,0.225,0.171,0.481,0.293,0.929c0.03,0.134,0.079,0.256,0.128,0.38
			c0.03,0.076,0.061,0.158,0.066,0.201l4.11,36.949C119.618,78.397,117.895,80.547,115.508,80.815z"/>
		<path d="M149.93,53.125c7.155,0,12.977-8.312,12.977-15.469c0-7.17-5.821-12.982-12.977-12.982
			c-7.167,0-12.981,5.812-12.981,12.982C136.948,44.812,142.757,53.125,149.93,53.125z"/>
		<path d="M175.56,62.846c-0.031-0.25-0.159-0.45-0.22-0.679c-0.104-0.375-0.177-0.749-0.359-1.093
			c-0.134-0.256-0.329-0.454-0.505-0.686c-0.226-0.304-0.438-0.605-0.731-0.861c-0.231-0.192-0.505-0.311-0.767-0.466
			c-0.262-0.149-0.481-0.368-0.779-0.475c-0.463-0.167-10.797-3.873-20.283-4.357l-1.315,2.606h-0.03l3.459,26.923l-4.11,7.17
			l-4.104-7.17l3.453-26.923h-0.037l-1.303-2.606c-9.487,0.493-19.82,4.189-20.283,4.357c-0.299,0.107-0.518,0.326-0.785,0.481
			c-0.256,0.149-0.524,0.262-0.749,0.454c-0.305,0.255-0.518,0.569-0.762,0.88c-0.158,0.225-0.347,0.411-0.48,0.66
			c-0.177,0.351-0.262,0.725-0.359,1.111c-0.055,0.237-0.188,0.43-0.22,0.667l-4.104,36.949c-0.311,2.819,1.717,5.358,4.536,5.675
			c0.195,0.019,0.378,0.03,0.572,0.03c2.576,0,4.805-1.942,5.091-4.561l3.738-33.661c0.438-0.131,0.914-0.268,1.425-0.411v35.028
			l-4.085,50.796c-0.269,3.386,2.246,6.356,5.65,6.631c0.164,0.013,0.329,0.013,0.493,0.013c3.179,0,5.87-2.442,6.132-5.664
			l3.689-45.905c0.762,0.335,1.596,0.529,2.484,0.529c0.884,0,1.724-0.194,2.484-0.529l3.696,45.905
			c0.262,3.222,2.953,5.664,6.126,5.664c0.171,0,0.341,0,0.506-0.013c3.392-0.274,5.918-3.245,5.645-6.631l-4.086-50.796V66.861
			c0.512,0.144,0.986,0.28,1.431,0.411l3.739,33.661c0.292,2.618,2.515,4.561,5.09,4.561c0.189,0,0.378-0.012,0.572-0.03
			c2.819-0.311,4.854-2.855,4.537-5.675L175.56,62.846z"/>
		<polygon points="67.562,146.31 67.562,163.237 83.941,180.763 115.203,147.979 115.203,131.209 84.027,163.913 		"/>
	</g>
</g>
</svg>