<?xml version="1.0" encoding="utf-8"?>
<!-- Uploaded to: SVG Repo, www.svgrepo.com, Generator: SVG Repo Mixer Tools -->
<svg fill="#000000" version="1.1" id="Layer_1" xmlns="http://www.w3.org/2000/svg" xmlns:xlink="http://www.w3.org/1999/xlink" 
	 width="800px" height="800px" viewBox="0 0 260 215" xml:space="preserve">
<path d="M258,73.8l-28.6-19.4l14-39.8l-27.9,26.8l-33.4-28.1l13.6,35.2c-2.3-0.3-5.3-1.3-8.7-3.6c-8.7-6.1-10.6-12.7-12.6-19.8
	c-1.6-5.6-3.3-11.4-8.4-16.4c-7-6.9-15.8-8.3-23.4-3.9c-5.3,3.1-8.8,8.2-9.6,13.6L116.6,11l-7.8,17.3c-4.6-0.7-9.2-1.1-14-1.1
	C43.5,27.3,2,68.8,2,120c0,51.2,41.5,92.8,92.8,92.8s92.8-41.5,92.8-92.8c0-16.9-4.5-32.7-12.4-46.3l21.5-4.3l-6,27.7l22.8-14.2
	l29.8,32.6L230,70.7L258,73.8z M41.3,105.3c0-9.5,7.7-17.2,17.2-17.2c9.5,0,17.2,7.7,17.2,17.2c0,9.5-7.7,17.2-17.2,17.2
	C49,122.4,41.3,114.8,41.3,105.3z M134.7,165l-14.2-11.2l-17.1,13.5l-17.1-13.5L69,167.3l-20-15.8l5.8-7.4L69,155.3l17.1-13.5
	l17.1,13.5l17.1-13.5l20.1,15.8L134.7,165z M131,122.4c-9.5,0-17.2-7.7-17.2-17.2c0-9.5,7.7-17.2,17.2-17.2
	c9.5,0,17.2,7.7,17.2,17.2C148.2,114.8,140.5,122.4,131,122.4z M150.1,45.6l7.3-16.2l-18.1-8.2c-0.1-4.1,2.5-8.4,6.6-10.8
	c5-2.9,10.7-1.9,15.5,2.9c3.9,3.8,5.1,8.3,6.6,13.5c2.1,7.5,4.6,16,15.2,23.4c3.1,2.1,6,3.4,8.5,4.1l-21.2,12.3
	C164.9,58.5,157.9,51.4,150.1,45.6z"/>
</svg>