<?xml version="1.0" encoding="iso-8859-1"?>
<!-- Uploaded to: SVG Repo, www.svgrepo.com, Generator: SVG Repo Mixer Tools -->
<!DOCTYPE svg PUBLIC "-//W3C//DTD SVG 1.1//EN" "http://www.w3.org/Graphics/SVG/1.1/DTD/svg11.dtd">
<svg fill="#000000" version="1.1" id="Capa_1" xmlns="http://www.w3.org/2000/svg" xmlns:xlink="http://www.w3.org/1999/xlink" 
	 width="800px" height="800px" viewBox="0 0 37.211 37.21"
	 xml:space="preserve">
<g>
	<g>
		<path d="M20.708,11.021c-0.091,0.147-0.185,0.295-0.256,0.456c-0.089,0.2-0.166,0.411-0.224,0.63
			c-0.572,2.163,0.717,4.377,2.879,4.948c2.158,0.571,4.375-0.715,4.947-2.879c0.113-0.431,0.135-0.863,0.108-1.286l1.085-0.887
			l-1.291-0.878l0.663-1.38l-1.87,0.038l-0.355-1.888L24.499,9.05l-0.797-1.639L22.695,9.03l-1.687-1.093l0.285,1.738L19.85,9.697
			L20.708,11.021z"/>
		<path d="M27.005,23.696l-1.348-5.123c-0.327,0.457-0.854,0.946-1.653,0.994c-1.523,0.088-2.102-1.791-2.102-1.791l-2.445,0.576
			l-1.96,5.302H12.13v1.93h1.158v10.983h0.943V25.583h6.231l0.015,1.359h-1.531v0.661h1.313v8.457h2.897v-8.457h1.916v8.457h2.898
			v-8.457h1.141v-0.661h-1.34l0.002-1.359h7.05v10.983h0.94V25.583h1.447v-1.93L27.005,23.696z M19.846,22.78l0.568-1.579
			l0.018,1.579H19.846z"/>
		<path d="M25.698,17.298l1.581,5.96l0.494-0.001l2.033-0.004l-2.162-7.375C27.143,16.514,26.473,17.008,25.698,17.298z"/>
		<path d="M13.657,9.026c1.032-0.386,1.711-1.308,1.711-2.354c0-0.738-0.336-1.419-0.927-1.902c0.012-0.099,0.019-0.199,0.019-0.298
			c0-1.401-1.23-2.541-2.742-2.541c-0.245,0-0.486,0.03-0.721,0.091c-0.465-0.836-1.406-1.378-2.436-1.378
			c-0.611,0-1.198,0.188-1.677,0.532C6.452,0.931,5.962,0.801,5.452,0.801c-1.388,0-2.538,0.96-2.718,2.199
			C1.227,3.006,0,4.142,0,5.541c0,1.166,0.863,2.173,2.056,2.457C2.054,8.03,2.053,8.063,2.053,8.095
			c0,1.399,1.23,2.541,2.742,2.541c0.386,0,0.77-0.077,1.122-0.225c0.518,0.575,1.284,0.912,2.103,0.912
			c0.605,0,1.187-0.186,1.666-0.526c0.394,0.192,0.831,0.294,1.278,0.294C12.296,11.091,13.415,10.218,13.657,9.026z M9.617,9.976
			l-0.185,0.157c-0.387,0.328-0.887,0.509-1.413,0.509c-0.701,0-1.347-0.319-1.73-0.851L6.114,9.547L5.851,9.689
			C5.529,9.864,5.165,9.955,4.794,9.955c-1.137,0-2.062-0.834-2.062-1.859c0-0.097,0.011-0.2,0.032-0.312L2.83,7.426L2.47,7.383
			C1.449,7.262,0.68,6.47,0.68,5.542c0-1.025,0.924-1.859,2.061-1.859c0.091,0,0.181,0.006,0.27,0.017l0.381,0.046L3.39,3.322
			c0-1.007,0.925-1.842,2.062-1.842c0.458,0,0.894,0.135,1.258,0.392l0.219,0.152l0.2-0.175C7.518,1.51,8.025,1.324,8.561,1.324
			c0.868,0,1.646,0.495,1.94,1.235l0.122,0.31l0.312-0.116c0.25-0.093,0.514-0.14,0.783-0.14c1.136,0,2.061,0.834,2.061,1.859
			c0,0.125-0.013,0.249-0.041,0.37l-0.051,0.225l0.189,0.13c0.515,0.355,0.811,0.893,0.811,1.475c0,0.81-0.575,1.521-1.43,1.77
			l-0.22,0.063l-0.024,0.227c-0.102,0.956-0.984,1.678-2.051,1.678c-0.405,0-0.798-0.108-1.137-0.31L9.617,9.976z"/>
		<path d="M14.824,13.281c0-0.925-0.9-1.679-2.005-1.679c-1.107,0-2.006,0.753-2.006,1.679c0,0.927,0.899,1.68,2.006,1.68
			C13.924,14.961,14.824,14.208,14.824,13.281z M11.493,13.281c0-0.55,0.594-0.998,1.326-0.998c0.729,0,1.325,0.448,1.325,0.998
			c0,0.553-0.595,0.999-1.325,0.999C12.087,14.28,11.493,13.834,11.493,13.281z"/>
		<path d="M14.106,16.327c0,0.695,0.667,1.261,1.486,1.261c0.819,0,1.487-0.565,1.487-1.261c0-0.698-0.668-1.264-1.487-1.264
			C14.773,15.063,14.106,15.629,14.106,16.327z M15.592,15.744c0.438,0,0.806,0.266,0.806,0.583c0,0.314-0.368,0.581-0.806,0.581
			s-0.807-0.266-0.807-0.581C14.786,16.01,15.155,15.744,15.592,15.744z"/>
	</g>
</g>
</svg>